<svg width="174" height="57" viewBox="0 0 174 57" fill="none" xmlns="http://www.w3.org/2000/svg">
<path d="M74.2979 54.0407V43.5208H75.2266V47.6507H75.308C75.4058 47.4068 75.5524 47.1792 75.7479 46.919C75.9434 46.6751 76.2041 46.4637 76.5137 46.2849C76.8233 46.1223 77.2306 46.0247 77.7194 46.0247C78.3711 46.0247 78.9413 46.1873 79.4301 46.5288C79.9189 46.8702 80.3099 47.3418 80.5706 47.9596C80.8476 48.5775 80.978 49.2766 80.978 50.0896C80.978 50.9026 80.8476 51.618 80.5706 52.2359C80.2937 52.8538 79.9189 53.3253 79.4301 53.6667C78.9413 54.0082 78.3711 54.187 77.7357 54.187C77.2469 54.187 76.8559 54.1058 76.53 53.9269C76.2041 53.748 75.9434 53.5367 75.7479 53.2928C75.5524 53.0489 75.4058 52.7887 75.2917 52.5611H75.1777V54.0244H74.2979V54.0407ZM75.2103 50.1059C75.2103 50.74 75.308 51.3091 75.5035 51.7969C75.699 52.2847 75.976 52.6749 76.3345 52.9513C76.6929 53.2277 77.1328 53.3741 77.6379 53.3741C78.1593 53.3741 78.6155 53.2277 78.9739 52.9351C79.3324 52.6424 79.6094 52.2522 79.8049 51.7644C80.0004 51.2766 80.0818 50.7238 80.0818 50.1059C80.0818 49.5043 79.9841 48.9515 79.8049 48.4637C79.6256 47.9759 79.3487 47.5856 78.9739 47.3092C78.6155 47.0166 78.1593 46.8865 77.6379 46.8865C77.1165 46.8865 76.6929 47.0166 76.3345 47.293C75.976 47.5694 75.699 47.9434 75.5198 48.4311C75.308 48.9189 75.2103 49.4718 75.2103 50.1059Z" fill="#132128"/>
<path d="M83.2753 56.9998C83.0961 56.9998 82.9169 56.9835 82.7702 56.951C82.6073 56.9185 82.4932 56.886 82.3955 56.8372L82.6399 56.0242C82.9494 56.1218 83.2264 56.1543 83.4708 56.1218C83.7152 56.0892 83.927 55.9917 84.1225 55.7966C84.3181 55.6015 84.481 55.3088 84.6276 54.9023L84.9209 54.1056L82.0045 46.1384H82.9983L85.3608 52.8373H85.426L87.7722 46.1546H88.766L85.426 55.2925C85.2793 55.6665 85.1164 55.9917 84.9046 56.2518C84.6928 56.512 84.4647 56.6909 84.1877 56.8209C83.9107 56.951 83.6174 56.9998 83.2753 56.9998Z" fill="#132128"/>
<path d="M112.921 55.1787V54.8536H112.937C114.273 54.8536 114.632 54.4633 114.632 53.065V48.2359C114.632 46.301 114.045 45.4392 112.726 45.4392C111.895 45.4392 110.999 45.9108 110.086 46.8213L110.054 46.8538V53.065C110.054 54.3983 110.461 54.8373 111.781 54.8536V55.1787H106.029V54.8536C107.365 54.821 107.756 54.4145 107.756 53.065V47.2278C107.756 45.8945 107.496 45.4067 106.762 45.4067C106.518 45.4067 106.143 45.488 105.85 45.6018V45.2604L109.19 44.236C109.32 44.2035 109.434 44.1873 109.548 44.1873C109.874 44.1873 110.054 44.3986 110.054 44.7889V46.1221L110.265 45.8783C111.487 44.4312 112.514 43.8621 113.931 43.8621C115.935 43.8621 116.929 45.1466 116.929 47.7806V53.065C116.929 54.4145 117.353 54.8536 118.689 54.8536V55.1787H112.921Z" fill="#132128"/>
<path d="M124.091 55.5202C122.657 55.5202 121.533 55.0324 120.653 54.008C119.79 53.0162 119.35 51.6829 119.35 50.1057C119.35 48.3822 119.855 46.9514 120.898 45.7319C121.941 44.4799 123.244 43.862 124.906 43.862C125.949 43.862 126.763 44.1547 127.301 44.7238L127.513 44.9352V41.8133C127.513 40.1061 127.236 39.5695 126.356 39.5695C126.144 39.5695 125.769 39.6508 125.492 39.7321L125.509 39.3907L129.223 38.2362C129.272 38.22 129.305 38.22 129.354 38.22C129.598 38.22 129.794 38.4151 129.794 38.659V51.9268C129.794 53.6666 130.087 54.5446 130.739 54.7235C130.885 54.7722 131.26 54.8048 131.765 54.8048V55.13L128.148 55.0974H127.513V53.9593L127.317 54.1219C126.274 55.0812 125.215 55.5202 124.091 55.5202ZM124.938 44.545C123.146 44.545 121.941 46.4311 121.941 49.244C121.941 52.2195 123.342 54.2845 125.313 54.2845C126.014 54.2845 126.747 53.943 127.496 53.2438L127.529 53.2113V48.057C127.545 45.8295 126.6 44.545 124.938 44.545Z" fill="#132128"/>
<path d="M137.149 55.5202C135.666 55.5202 134.46 54.9999 133.45 53.9268C132.489 52.8536 132 51.4878 132 49.8781C132 48.1058 132.489 46.6587 133.417 45.5531C134.379 44.4312 135.65 43.8621 137.214 43.8621C139.918 43.8621 141.678 45.5693 141.727 48.2196H133.809V48.3335C133.809 51.4553 135.373 53.4064 137.898 53.4064C139.495 53.4064 140.684 52.626 141.434 51.0813L141.694 51.2764C141.45 52.4634 140.929 53.4715 140.13 54.2682C139.316 55.1137 138.338 55.5202 137.149 55.5202ZM136.643 44.5775C135.161 44.5775 133.971 45.8132 133.857 47.4717L133.841 47.6018H139.185L139.169 47.4717C139.087 45.6344 138.159 44.5775 136.643 44.5775Z" fill="#132128"/>
<path d="M143.744 55.1791V41.9275C143.744 40.3016 143.451 39.765 142.588 39.765C142.343 39.765 141.969 39.8301 141.692 39.9114V39.6024L145.325 38.2366C145.374 38.2204 145.423 38.2041 145.472 38.2041H145.569C145.814 38.2041 146.009 38.3992 146.009 38.6431V53.0654C146.009 54.3499 146.465 54.8377 147.736 54.8539V55.1791H143.744Z" fill="#132128"/>
<path d="M156.455 55.5204C155.543 55.5204 155.103 55 155.07 53.9106L155.054 53.6668L154.858 53.8294C153.555 54.9513 152.414 55.5366 151.469 55.5366C149.742 55.5366 148.651 54.496 148.651 52.8538C148.651 51.9595 149.107 51.1628 150.019 50.4311C150.964 49.6832 152.626 48.919 154.956 48.1222L155.038 48.0897V48.0084C155.038 45.8134 154.712 44.5451 153.001 44.5451C151.551 44.5451 151.258 45.3256 151.258 45.9922C151.258 47.1792 150.883 47.7645 150.101 47.7645C149.482 47.7645 149.058 47.3255 149.058 46.6751C149.058 45.9272 149.433 45.2931 150.199 44.7402C150.997 44.1712 152.056 43.8785 153.376 43.8785C156.032 43.8785 157.319 44.9679 157.319 47.1954V52.2197C157.319 53.6505 157.53 53.9919 157.905 54.1058C157.938 54.122 157.97 54.122 158.019 54.122C158.231 54.122 158.492 53.9594 158.801 53.6342L159.046 53.9432C158.231 54.9838 157.351 55.5204 156.455 55.5204ZM154.907 48.7401C151.893 49.9596 150.981 50.8051 150.981 52.301C150.981 53.309 151.714 54.0732 152.675 54.0732C153.311 54.0732 154.093 53.7481 155.021 53.0814L155.07 53.0489V48.6913L154.907 48.7401Z" fill="#132128"/>
<path d="M102.554 55.5203C101.642 55.5203 101.202 55 101.169 53.9106L101.153 53.6667L100.958 53.8293C99.6542 54.9512 98.5137 55.5365 97.5687 55.5365C95.8416 55.5365 94.75 54.4959 94.75 52.8537C94.75 51.9594 95.2062 51.1627 96.1186 50.431C97.0636 49.6831 98.7255 48.9189 101.055 48.1222L101.137 48.0897V48.0084C101.137 45.8133 100.811 44.5451 99.1002 44.5451C97.6502 44.5451 97.3569 45.3255 97.3569 45.9922C97.3569 47.1791 96.9821 47.7645 96.2001 47.7645C95.5809 47.7645 95.1573 47.3255 95.1573 46.6751C95.1573 45.9271 95.5321 45.293 96.2978 44.7402C97.0799 44.1711 98.1552 43.8784 99.475 43.8784C102.131 43.8784 103.418 44.9678 103.418 47.1954V52.2196C103.418 53.6504 103.63 53.9919 104.004 54.1057C104.037 54.122 104.07 54.122 104.118 54.122C104.33 54.122 104.591 53.9594 104.901 53.6342L105.145 53.9431C104.347 54.9837 103.467 55.5203 102.554 55.5203ZM101.006 48.74C97.9923 49.9595 97.0799 50.7888 97.0799 52.3009C97.0799 53.309 97.8131 54.0732 98.7744 54.0732C99.4098 54.0732 100.192 53.748 101.121 53.0814L101.169 53.0488V48.6913L101.006 48.74Z" fill="#132128"/>
<path fill-rule="evenodd" clip-rule="evenodd" d="M28.9422 30.561H14.6355C12.644 30.561 10.7559 30.2048 8.97105 29.483C7.18623 28.7705 5.63626 27.7674 4.30235 26.5018C2.97782 25.2269 1.92572 23.7082 1.15543 21.9458C0.385145 20.1834 0 18.2522 0 16.1617C0 14.0899 0.375751 12.1775 1.11786 10.4151C1.85997 8.65271 2.89328 7.11528 4.20841 5.82159C5.52354 4.51853 7.06411 3.50608 8.83014 2.77487C10.5962 2.04365 12.5219 1.67804 14.5885 1.67804C16.58 1.67804 18.4494 2.03428 20.1872 2.75612C21.9251 3.46858 23.4468 4.46228 24.7526 5.71847C26.0583 6.97466 27.0822 8.46522 27.8431 10.1714C28.604 11.8776 28.9798 13.7431 28.9798 15.7586C28.9798 16.9492 28.8389 18.1304 28.5571 19.2834C28.2752 20.4365 27.8619 21.5146 27.3171 22.527C26.7816 23.5301 26.0959 24.4394 25.288 25.2363C24.4802 26.0331 23.5408 26.6706 22.5169 27.1487V27.2237H28.9328V30.561H28.9422ZM14.4758 26.9799C16.0164 26.9799 17.4348 26.6987 18.7218 26.1269C20.0087 25.555 21.1172 24.7769 22.0284 23.7832C22.949 22.7895 23.6535 21.6177 24.1608 20.2584C24.668 18.9085 24.9217 17.4648 24.9217 15.918C24.9217 14.4368 24.6586 13.04 24.142 11.7369C23.6253 10.4339 22.902 9.30892 21.972 8.35272C21.042 7.39652 19.943 6.63718 18.6654 6.08408C17.3879 5.53098 15.9976 5.24975 14.4758 5.24975C12.9916 5.24975 11.6107 5.53098 10.3519 6.08408C9.09317 6.63718 7.99409 7.39652 7.06411 8.35272C6.13413 9.30892 5.40142 10.4245 4.87536 11.7182C4.33992 13.0025 4.07689 14.3806 4.07689 15.8336C4.07689 17.371 4.33053 18.8147 4.83779 20.174C5.34505 21.524 6.04959 22.7052 6.97017 23.7176C7.89076 24.7301 8.98044 25.5175 10.258 26.1081C11.5355 26.6987 12.9352 26.9799 14.4758 26.9799ZM50.7545 30.561H47.1661V27.6549H47.091C46.64 28.658 45.851 29.4829 44.7425 30.1017C43.634 30.7204 42.3377 31.0391 40.8723 31.0391C39.9423 31.0391 39.0687 30.8985 38.242 30.6173C37.4342 30.3454 36.6921 29.9048 36.0721 29.3236C35.4521 28.7424 34.9448 27.9924 34.5785 27.0737C34.2027 26.155 34.0242 25.0769 34.0242 23.8301V11.6994H37.6126V22.8458C37.6126 23.7176 37.7348 24.4676 37.9696 25.0957C38.2044 25.7144 38.5238 26.2206 38.9278 26.605C39.3129 26.9799 39.792 27.2706 40.2993 27.4393C40.8159 27.608 41.3514 27.7018 41.915 27.7018C42.6571 27.7018 43.3522 27.5799 43.991 27.3456C44.6298 27.1112 45.184 26.7268 45.6631 26.2112C46.1422 25.6956 46.5179 25.0394 46.781 24.2426C47.044 23.4457 47.1755 22.5083 47.1755 21.4208V11.6994H50.7639L50.7545 30.561ZM56.2593 14.0149C57.2644 13.0869 58.4386 12.3932 59.7725 11.9244C61.0971 11.4557 62.431 11.2307 63.7555 11.2307C65.1364 11.2307 66.3294 11.3994 67.3251 11.7463C68.3209 12.0932 69.1381 12.5525 69.7769 13.1431C70.4157 13.7243 70.8854 14.3993 71.1954 15.1493C71.496 15.8992 71.6556 16.7054 71.6556 17.521V27.1487C71.6556 27.8143 71.665 28.4236 71.6932 28.9767C71.7214 29.5298 71.759 30.0642 71.8153 30.5704H68.6215C68.5463 29.6142 68.4993 28.658 68.4993 27.7018H68.4242C67.6257 28.9205 66.6863 29.7829 65.5967 30.2892C64.507 30.7954 63.2482 31.0485 61.811 31.0485C60.9374 31.0485 60.0919 30.9266 59.3028 30.6923C58.5044 30.4579 57.8092 30.0923 57.208 29.6142C56.6068 29.1361 56.1372 28.5455 55.7896 27.8424C55.442 27.1393 55.2729 26.3237 55.2729 25.3957C55.2729 24.177 55.5453 23.1551 56.0902 22.3302C56.635 21.5052 57.3771 20.8396 58.3259 20.324C59.2653 19.8084 60.3737 19.4334 61.6325 19.2084C62.8913 18.9835 64.244 18.871 65.6812 18.871H68.3115V18.0648C68.3115 17.5866 68.2175 17.1085 68.0297 16.6304C67.8418 16.1523 67.56 15.7117 67.1936 15.3368C66.8179 14.9524 66.3576 14.643 65.7939 14.4181C65.2397 14.1931 64.5728 14.0806 63.8025 14.0806C63.1073 14.0806 62.5061 14.1462 61.9895 14.2774C61.4728 14.4087 61.0031 14.5774 60.571 14.7743C60.1577 14.9618 59.7725 15.1961 59.4156 15.468C59.0868 15.7211 58.7486 15.9742 58.4198 16.2273L56.2593 14.0149ZM66.3857 21.4865C65.5121 21.4865 64.6385 21.5333 63.7743 21.6271C62.8819 21.7208 62.074 21.8989 61.3413 22.1614C60.6086 22.4239 60.0168 22.7989 59.5471 23.277C59.0774 23.7551 58.8519 24.3644 58.8519 25.105C58.8519 26.1925 59.2183 26.9706 59.951 27.4487C60.6837 27.9268 61.6701 28.1611 62.9194 28.1611C63.9058 28.1611 64.7418 27.9924 65.4276 27.6643C66.1133 27.3362 66.677 26.9049 67.0997 26.3706C67.5224 25.8456 67.8324 25.2457 68.0203 24.5988C68.2081 23.952 68.3021 23.3051 68.3021 22.6677V21.4771H66.3857V21.4865ZM77.151 0.478102H80.7394V30.561H77.151V0.478102ZM86.7139 11.6994H90.3023V30.561H86.7139V11.6994ZM85.8778 4.94039C85.8778 4.22792 86.1408 3.6092 86.6575 3.0936C87.1742 2.578 87.7941 2.31551 88.5081 2.31551C89.222 2.31551 89.842 2.578 90.3586 3.0936C90.8753 3.6092 91.1383 4.22792 91.1383 4.94039C91.1383 5.65285 90.8753 6.27157 90.3586 6.78717C89.842 7.30277 89.222 7.56526 88.5081 7.56526C87.7941 7.56526 87.1742 7.30277 86.6575 6.78717C86.1408 6.27157 85.8778 5.65285 85.8778 4.94039ZM97.404 14.8024H93.3365V11.6994H97.404V7.48089C97.404 4.95914 97.8924 3.08423 98.86 1.84679C99.8276 0.609345 101.5 0 103.867 0C104.261 0 104.684 0.00937397 105.126 0.0374976C105.567 0.0656213 106.037 0.140618 106.544 0.271861L106.15 3.45921C105.83 3.33734 105.492 3.24359 105.154 3.17797C104.816 3.12172 104.468 3.0936 104.121 3.10297C103.454 3.10297 102.928 3.20609 102.524 3.40296C102.138 3.59045 101.81 3.89044 101.584 4.25604C101.359 4.63103 101.208 5.07163 101.143 5.58723C101.077 6.10283 101.039 6.69343 101.039 7.35902V11.6994H105.304V14.8024H101.002V30.561H97.4134L97.404 14.8024ZM109.56 11.6994H113.148V30.561H109.56V11.6994ZM108.723 4.94039C108.723 4.22792 108.986 3.6092 109.503 3.0936C110.02 2.578 110.64 2.31551 111.354 2.31551C112.068 2.31551 112.688 2.578 113.204 3.0936C113.721 3.6092 113.984 4.22792 113.984 4.94039C113.984 5.65285 113.721 6.27157 113.204 6.78717C112.688 7.30277 112.068 7.56526 111.354 7.56526C110.64 7.56526 110.02 7.30277 109.503 6.78717C108.986 6.27157 108.723 5.65285 108.723 4.94039ZM121.565 22.4427C121.565 23.2676 121.743 24.0176 122.1 24.6926C122.448 25.3582 122.936 25.9487 123.519 26.4269C124.101 26.905 124.777 27.2799 125.548 27.5424C126.318 27.8049 127.126 27.9455 127.943 27.9362C129.061 27.9362 130.029 27.6737 130.855 27.1581C131.682 26.6425 132.433 25.9581 133.128 25.105L135.843 27.1768C133.852 29.7454 131.062 31.0391 127.473 31.0391C125.989 31.0391 124.636 30.786 123.425 30.2798C122.213 29.7736 121.189 29.0798 120.353 28.1893C119.517 27.2987 118.869 26.2487 118.418 25.0488C117.967 23.8395 117.741 22.5364 117.741 21.1302C117.741 19.724 117.986 18.421 118.484 17.2117C118.972 16.0024 119.658 14.9524 120.513 14.0712C121.367 13.19 122.41 12.4869 123.603 11.9807C124.796 11.4744 126.102 11.2213 127.511 11.2213C129.183 11.2213 130.602 11.5119 131.757 12.0932C132.912 12.6744 133.861 13.4431 134.603 14.3806C135.345 15.318 135.89 16.3867 136.219 17.5679C136.548 18.7397 136.717 19.949 136.717 21.1677V22.4427H121.565ZM132.884 19.5834C132.856 18.7866 132.734 18.0554 132.508 17.3992C132.283 16.7336 131.945 16.1617 131.494 15.6649C131.043 15.168 130.479 14.793 129.803 14.5118C129.127 14.2306 128.338 14.0899 127.426 14.0899C126.553 14.0899 125.745 14.2587 125.012 14.5868C124.28 14.9149 123.66 15.3461 123.162 15.8805C122.664 16.3961 122.269 16.9961 121.987 17.6523C121.706 18.2991 121.565 18.946 121.565 19.5834H132.884ZM159.675 30.561H156.087V27.8518H156.012C155.317 28.8549 154.368 29.6423 153.165 30.1954C151.954 30.7485 150.714 31.0298 149.436 31.0298C147.971 31.0298 146.655 30.7766 145.472 30.2704C144.288 29.7642 143.283 29.0611 142.438 28.1611C141.602 27.2612 140.953 26.2112 140.503 25.0207C140.052 23.8301 139.826 22.527 139.826 21.1209C139.826 19.7147 140.052 18.4116 140.503 17.2023C140.953 15.993 141.602 14.943 142.438 14.0618C143.274 13.1712 144.288 12.4775 145.472 11.9713C146.655 11.4651 147.98 11.212 149.436 11.212C150.789 11.212 152.066 11.4932 153.259 12.065C154.452 12.6369 155.373 13.415 156.012 14.3899H156.087V0.478102H159.675V30.561ZM149.868 27.7018C150.826 27.7018 151.691 27.533 152.461 27.2049C153.231 26.8768 153.879 26.4268 154.415 25.855C154.95 25.2832 155.354 24.5988 155.655 23.7832C155.946 22.977 156.096 22.0958 156.096 21.1396C156.096 20.1834 155.946 19.3022 155.655 18.496C155.364 17.6898 154.95 16.9961 154.415 16.4242C153.879 15.8524 153.231 15.4024 152.461 15.0743C151.691 14.7462 150.826 14.5774 149.868 14.5774C148.91 14.5774 148.046 14.7462 147.275 15.0743C146.505 15.4024 145.857 15.8524 145.322 16.4242C144.786 16.9961 144.382 17.6804 144.082 18.496C143.79 19.3022 143.64 20.1834 143.64 21.1396C143.64 22.0958 143.79 22.977 144.082 23.7832C144.373 24.5894 144.786 25.2832 145.322 25.855C145.857 26.4268 146.505 26.8768 147.275 27.2049C148.046 27.533 148.91 27.7018 149.868 27.7018Z" fill="#132128"/>
<path d="M169.171 1.18127C169.171 2.92745 167.752 4.35333 166.001 4.36236H165.983C165.912 4.36236 165.834 4.38697 165.772 4.44829C165.711 4.50965 165.686 4.5882 165.686 4.65923C165.686 4.73026 165.711 4.8088 165.772 4.87017C165.834 4.93149 165.912 4.9561 165.983 4.9561C167.734 4.9561 169.162 6.3733 169.171 8.11907V8.13719C169.171 8.20821 169.196 8.28676 169.257 8.34813C169.319 8.40945 169.397 8.43406 169.468 8.43406C169.539 8.43406 169.617 8.40945 169.679 8.34813C169.74 8.28676 169.765 8.20821 169.765 8.13719C169.765 6.39101 171.184 4.96512 172.935 4.9561H172.953C173.024 4.9561 173.102 4.93149 173.164 4.87017C173.225 4.8088 173.25 4.73026 173.25 4.65923C173.25 4.5882 173.225 4.50965 173.164 4.44829C173.102 4.38697 173.024 4.36236 172.953 4.36236C171.193 4.36236 169.765 2.93638 169.765 1.18127C169.765 1.11024 169.74 1.0317 169.679 0.970332C169.617 0.909012 169.539 0.884399 169.468 0.884399C169.397 0.884399 169.319 0.909012 169.257 0.970332C169.196 1.0317 169.171 1.11024 169.171 1.18127Z" fill="#36B352" stroke="#36B252" stroke-width="0.5"/>
<path d="M169.171 12.0367C169.171 13.7829 167.751 15.2088 166.001 15.2178H165.983C165.912 15.2178 165.833 15.2424 165.772 15.3038C165.711 15.3651 165.686 15.4437 165.686 15.5147C165.686 15.5857 165.711 15.6643 165.772 15.7256C165.833 15.787 165.912 15.8116 165.983 15.8116C167.734 15.8116 169.162 17.2288 169.171 18.9745V18.9927C169.171 19.0637 169.196 19.1422 169.257 19.2036C169.319 19.2649 169.397 19.2895 169.468 19.2895C169.539 19.2895 169.617 19.2649 169.678 19.2036C169.74 19.1422 169.765 19.0637 169.765 18.9927C169.765 17.2465 171.184 15.8206 172.935 15.8116H172.953C173.024 15.8116 173.102 15.787 173.164 15.7256C173.225 15.6643 173.25 15.5857 173.25 15.5147C173.25 15.4437 173.225 15.3651 173.164 15.3038C173.102 15.2424 173.024 15.2178 172.953 15.2178C171.193 15.2178 169.765 13.7918 169.765 12.0367C169.765 11.9657 169.74 11.8872 169.678 11.8258C169.617 11.7645 169.539 11.7399 169.468 11.7399C169.397 11.7399 169.319 11.7645 169.257 11.8258C169.196 11.8872 169.171 11.9657 169.171 12.0367Z" fill="#66CC7D" stroke="#66CC7D" stroke-width="0.5"/>
<path d="M169.171 22.9021C169.171 24.6483 167.751 26.0742 166.001 26.0832H165.983C165.912 26.0832 165.833 26.1078 165.772 26.1691C165.711 26.2305 165.686 26.309 165.686 26.3801C165.686 26.4511 165.711 26.5296 165.772 26.591C165.833 26.6523 165.912 26.6769 165.983 26.6769C167.734 26.6769 169.162 28.0941 169.171 29.8399V29.858C169.171 29.929 169.196 30.0076 169.257 30.069C169.319 30.1303 169.397 30.1549 169.468 30.1549C169.539 30.1549 169.617 30.1303 169.678 30.069C169.74 30.0076 169.765 29.929 169.765 29.858C169.765 28.1118 171.184 26.6859 172.935 26.6769H172.953C173.024 26.6769 173.102 26.6523 173.164 26.591C173.225 26.5296 173.25 26.4511 173.25 26.3801C173.25 26.309 173.225 26.2305 173.164 26.1691C173.102 26.1078 173.024 26.0832 172.953 26.0832C171.193 26.0832 169.765 24.6572 169.765 22.9021C169.765 22.8311 169.74 22.7525 169.678 22.6912C169.617 22.6298 169.539 22.6052 169.468 22.6052C169.397 22.6052 169.319 22.6298 169.257 22.6912C169.196 22.7525 169.171 22.8311 169.171 22.9021Z" fill="#A1E6B0" stroke="#A1E5B0" stroke-width="0.5"/>
</svg>
